# xmcd CD database file
#
# Track frame offsets:
#	150
#	15475
#	29736
#	43680
#	52899
#	64761
#	75402
#	87396
#	97559
#	106893
#	119677
#	136817
#	147140
#	159147
#	170868
#
# Disc length: 2463 seconds
#
# Revision: 0
# Processed by: cddbd v1.5.2PL0 Copyright (c) Steve Scherf et al.
# Submitted via: CDex 1.51
#
DISCID=b8099d0f
DTITLE=Counatry Fever (compilation) - Line Dance CD2
DYEAR=1900
DGENRE=Country
TTITLE0=Desperado - Still in love with you
TTITLE1=The Hot Bilys - Cotton eyed Joe
TTITLE2=Claude Diamond - Spend a little time with me
TTITLE3=Mickey Gilley - Susie Q
TTITLE4=Joe Sun - Tonight the bottle let me down
TTITLE5=Irene Kelley - Comin' back from the moon
TTITLE6=Holy Dnn 6 There goes my heart again
TTITLE7=George Jones - Why, baby, why
TTITLE8=Doc Watson - Corn licker
TTITLE9=Jimmy Title - Blistered
TTITLE10=George Hamilton V - Midnight at a redlight
TTITLE11=Dave Dudley - Six days on the road
TTITLE12=David Allan Coe - Take this job and shove it
TTITLE13=Jeanne Pruett - Standing on the promises
TTITLE14=Doug Stone - Fourtenne minutes old
EXTD=
EXTT0=
EXTT1=
EXTT2=
EXTT3=
EXTT4=
EXTT5=
EXTT6=
EXTT7=
EXTT8=
EXTT9=
EXTT10=
EXTT11=
EXTT12=
EXTT13=
EXTT14=
PLAYORDER=
